<svg width="16" height="16" viewBox="0 0 16 16" fill="none" xmlns="http://www.w3.org/2000/svg">
<g clip-path="url(#clip0_1_311)">
<path d="M7.50001 1.906V2.844H8.50001V1.906H7.50001ZM7.50001 3.781V4.719H8.50001V3.78H7.50001V3.781ZM7.50001 5.656V6.594H8.50001V5.656H7.50001ZM1.90601 8.5H2.84401V7.5H1.90601V8.5ZM3.78101 8.5H4.71901V7.5H3.78001V8.5H3.78101ZM5.65601 8.5H6.59401V7.5H5.65601V8.5ZM8.46901 8.5V8.469H8.50001V7.53H8.46901V7.5H7.53001V7.531H7.50001V8.469H7.53101V8.5H8.46901ZM9.40601 8.5H10.344V7.5H9.40601V8.5ZM11.281 8.5H12.219V7.5H11.281V8.5ZM13.156 8.5H14.094V7.5H13.156V8.5ZM7.50001 9.406V10.344H8.50001V9.406H7.50001ZM7.50001 11.281V12.219H8.50001V11.281H7.50001ZM7.50001 13.156V14.094H8.50001V13.156H7.50001Z" fill="black"/>
<path d="M0 0V16H16V0H0ZM1 1H15V15H1V1Z" fill="black"/>
</g>
<defs>
<clipPath id="clip0_1_311">
<rect width="16" height="16" fill="white"/>
</clipPath>
</defs>
</svg>
