<svg width="16" height="16" viewBox="0 0 16 16" fill="none" xmlns="http://www.w3.org/2000/svg">
<path fill-rule="evenodd" clip-rule="evenodd" d="M1.64599 4.646C1.69244 4.59944 1.74761 4.56249 1.80836 4.53729C1.86911 4.51208 1.93423 4.49911 1.99999 4.49911C2.06576 4.49911 2.13088 4.51208 2.19163 4.53729C2.25237 4.56249 2.30755 4.59944 2.35399 4.646L7.99999 10.293L13.646 4.646C13.6925 4.59951 13.7477 4.56264 13.8084 4.53748C13.8691 4.51232 13.9342 4.49937 14 4.49937C14.0657 4.49937 14.1308 4.51232 14.1916 4.53748C14.2523 4.56264 14.3075 4.59951 14.354 4.646C14.4005 4.69249 14.4374 4.74768 14.4625 4.80842C14.4877 4.86916 14.5006 4.93426 14.5006 5C14.5006 5.06574 14.4877 5.13085 14.4625 5.19158C14.4374 5.25232 14.4005 5.30751 14.354 5.354L8.35399 11.354C8.30755 11.4006 8.25237 11.4375 8.19163 11.4627C8.13088 11.4879 8.06576 11.5009 7.99999 11.5009C7.93423 11.5009 7.86911 11.4879 7.80836 11.4627C7.74761 11.4375 7.69244 11.4006 7.64599 11.354L1.64599 5.354C1.59943 5.30756 1.56249 5.25238 1.53728 5.19163C1.51207 5.13089 1.4991 5.06577 1.4991 5C1.4991 4.93423 1.51207 4.86911 1.53728 4.80837C1.56249 4.74762 1.59943 4.69245 1.64599 4.646Z" fill="#007AFF"/>
</svg>
