<svg width="14" height="14" viewBox="0 0 14 14" fill="none" xmlns="http://www.w3.org/2000/svg">
<g clip-path="url(#clip0_1_283)">
<path d="M10.6453 7.8225C10.1868 8.75175 9.5655 9.6775 8.93025 10.5087C8.32764 11.2924 7.68329 12.0431 7 12.7575C6.3167 12.0431 5.67235 11.2924 5.06975 10.5087C4.4345 9.6775 3.81325 8.75175 3.35475 7.8225C2.891 6.88362 2.625 6.00425 2.625 5.25C2.625 4.08968 3.08594 2.97688 3.90641 2.15641C4.72688 1.33594 5.83968 0.875 7 0.875C8.16032 0.875 9.27312 1.33594 10.0936 2.15641C10.9141 2.97688 11.375 4.08968 11.375 5.25C11.375 6.00425 11.1081 6.88362 10.6453 7.8225ZM7 14C7 14 12.25 9.02475 12.25 5.25C12.25 3.85761 11.6969 2.52226 10.7123 1.53769C9.72774 0.553123 8.39239 0 7 0C5.60761 0 4.27226 0.553123 3.28769 1.53769C2.30312 2.52226 1.75 3.85761 1.75 5.25C1.75 9.02475 7 14 7 14Z" fill="#007AFF"/>
<path d="M7 7C6.53587 7 6.09075 6.81563 5.76256 6.48744C5.43437 6.15925 5.25 5.71413 5.25 5.25C5.25 4.78587 5.43437 4.34075 5.76256 4.01256C6.09075 3.68437 6.53587 3.5 7 3.5C7.46413 3.5 7.90925 3.68437 8.23744 4.01256C8.56563 4.34075 8.75 4.78587 8.75 5.25C8.75 5.71413 8.56563 6.15925 8.23744 6.48744C7.90925 6.81563 7.46413 7 7 7ZM7 7.875C7.69619 7.875 8.36387 7.59844 8.85616 7.10616C9.34844 6.61387 9.625 5.94619 9.625 5.25C9.625 4.55381 9.34844 3.88613 8.85616 3.39384C8.36387 2.90156 7.69619 2.625 7 2.625C6.30381 2.625 5.63613 2.90156 5.14384 3.39384C4.65156 3.88613 4.375 4.55381 4.375 5.25C4.375 5.94619 4.65156 6.61387 5.14384 7.10616C5.63613 7.59844 6.30381 7.875 7 7.875Z" fill="#007AFF"/>
</g>
<defs>
<clipPath id="clip0_1_283">
<rect width="14" height="14" fill="white"/>
</clipPath>
</defs>
</svg>
