<svg width="16" height="16" viewBox="0 0 16 16" fill="none" xmlns="http://www.w3.org/2000/svg">
<g clip-path="url(#clip0_1_332)">
<path d="M1 2.43774e-07L0 1L2.2 4.081C2.29262 4.21074 2.41491 4.31647 2.55668 4.38935C2.69845 4.46224 2.85559 4.50017 3.015 4.5H3.085C3.21648 4.4999 3.34669 4.52572 3.46818 4.576C3.58966 4.62628 3.70004 4.70002 3.793 4.793L6.468 7.468L3.851 10.122C3.40339 9.99024 2.93124 9.9646 2.472 10.0471C2.01275 10.1296 1.57905 10.318 1.2053 10.5973C0.831545 10.8766 0.528021 11.2392 0.318803 11.6563C0.109586 12.0733 0.000432201 12.5334 0 13C0.000599463 13.4299 0.0936037 13.8547 0.272711 14.2456C0.451819 14.6364 0.712846 14.9842 1.03811 15.2654C1.36337 15.5466 1.74526 15.7545 2.15792 15.8752C2.57057 15.9959 3.00434 16.0265 3.42985 15.9649C3.85535 15.9033 4.26264 15.7509 4.62413 15.5182C4.98561 15.2854 5.29284 14.9777 5.52501 14.6158C5.75717 14.2539 5.90884 13.8464 5.96975 13.4208C6.03065 12.9952 5.99936 12.5615 5.878 12.149L8.532 9.532L9.5 10.5L9.195 11.414C9.13639 11.5902 9.12799 11.7792 9.17073 11.9599C9.21347 12.1405 9.30567 12.3058 9.437 12.437L12.707 15.707C12.7997 15.8002 12.9098 15.8741 13.0311 15.9246C13.1525 15.9751 13.2826 16.001 13.414 16.001C13.5454 16.001 13.6755 15.9751 13.7969 15.9246C13.9182 15.8741 14.0283 15.8002 14.121 15.707L15.707 14.121C15.8002 14.0283 15.8741 13.9182 15.9246 13.7969C15.9751 13.6755 16.001 13.5454 16.001 13.414C16.001 13.2826 15.9751 13.1525 15.9246 13.0311C15.8741 12.9098 15.8002 12.7997 15.707 12.707L12.437 9.437C12.3058 9.30567 12.1405 9.21347 11.9599 9.17073C11.7792 9.12799 11.5902 9.13639 11.414 9.195L10.5 9.5L9.54 8.54L12.22 5.897C12.6646 6.01568 13.1305 6.03067 13.5818 5.94081C14.0331 5.85096 14.4577 5.65866 14.8229 5.37875C15.1882 5.09884 15.4842 4.73879 15.6883 4.32636C15.8924 3.91394 15.999 3.46015 16 3C16 2.731 15.965 2.47 15.898 2.223L13.758 4.364L12 4L11.636 2.243L13.777 0.102C13.2677 -0.0349385 12.7313 -0.0351941 12.2219 0.101259C11.7124 0.237712 11.248 0.506052 10.8753 0.87923C10.5026 1.25241 10.2349 1.71723 10.0991 2.22685C9.96338 2.73648 9.96437 3.27288 10.102 3.782L7.462 6.46L4.793 3.793C4.60545 3.60551 4.50006 3.3512 4.5 3.086V3.015C4.50002 2.85576 4.462 2.69882 4.38912 2.55724C4.31624 2.41565 4.21061 2.29352 4.081 2.201L1 2.43774e-07ZM10.646 10.646C10.6924 10.5994 10.7476 10.5625 10.8084 10.5373C10.8691 10.5121 10.9342 10.4991 11 10.4991C11.0658 10.4991 11.1309 10.5121 11.1916 10.5373C11.2524 10.5625 11.3076 10.5994 11.354 10.646L14.268 13.561C14.3591 13.6553 14.4095 13.7816 14.4083 13.9127C14.4072 14.0438 14.3546 14.1692 14.2619 14.2619C14.1692 14.3546 14.0438 14.4072 13.9127 14.4083C13.7816 14.4095 13.6553 14.3591 13.561 14.268L10.646 11.354C10.5994 11.3076 10.5625 11.2524 10.5373 11.1916C10.5121 11.1309 10.4991 11.0658 10.4991 11C10.4991 10.9342 10.5121 10.8691 10.5373 10.8084C10.5625 10.7476 10.5994 10.6924 10.646 10.646ZM3 11L3.471 11.242L4 11.268L4.287 11.713L4.732 12L4.758 12.529L5 13L4.758 13.471L4.732 14L4.287 14.287L4 14.732L3.471 14.758L3 15L2.529 14.758L2 14.732L1.713 14.287L1.268 14L1.242 13.471L1 13L1.242 12.529L1.268 12L1.713 11.713L2 11.268L2.529 11.242L3 11Z" fill="black"/>
</g>
<defs>
<clipPath id="clip0_1_332">
<rect width="16" height="16" fill="white"/>
</clipPath>
</defs>
</svg>
