<svg width="18" height="18" viewBox="0 0 18 18" fill="none" xmlns="http://www.w3.org/2000/svg">
<path d="M0.5625 11.1375C0.711684 11.1375 0.854758 11.1968 0.960248 11.3023C1.06574 11.4078 1.125 11.5508 1.125 11.7V14.5125C1.125 14.8109 1.24353 15.097 1.4545 15.308C1.66548 15.519 1.95163 15.6375 2.25 15.6375H15.75C16.0484 15.6375 16.3345 15.519 16.5455 15.308C16.7565 15.097 16.875 14.8109 16.875 14.5125V11.7C16.875 11.5508 16.9343 11.4078 17.0398 11.3023C17.1452 11.1968 17.2883 11.1375 17.4375 11.1375C17.5867 11.1375 17.7298 11.1968 17.8352 11.3023C17.9407 11.4078 18 11.5508 18 11.7V14.5125C18 15.1092 17.7629 15.6815 17.341 16.1035C16.919 16.5255 16.3467 16.7625 15.75 16.7625H2.25C1.65326 16.7625 1.08097 16.5255 0.65901 16.1035C0.237053 15.6815 0 15.1092 0 14.5125V11.7C0 11.5508 0.0592632 11.4078 0.164752 11.3023C0.270242 11.1968 0.413316 11.1375 0.5625 11.1375Z" fill="#007AFF"/>
<path d="M8.60174 1.28928C8.65399 1.2369 8.71607 1.19533 8.78441 1.16698C8.85274 1.13862 8.92601 1.12402 8.99999 1.12402C9.07398 1.12402 9.14724 1.13862 9.21558 1.16698C9.28392 1.19533 9.34599 1.2369 9.39824 1.28928L12.7732 4.66428C12.8789 4.7699 12.9382 4.91316 12.9382 5.06253C12.9382 5.2119 12.8789 5.35516 12.7732 5.46078C12.6676 5.5664 12.5244 5.62574 12.375 5.62574C12.2256 5.62574 12.0824 5.5664 11.9767 5.46078L9.56249 3.0454V12.9375C9.56249 13.0867 9.50323 13.2298 9.39774 13.3353C9.29225 13.4408 9.14918 13.5 8.99999 13.5C8.85081 13.5 8.70774 13.4408 8.60225 13.3353C8.49676 13.2298 8.43749 13.0867 8.43749 12.9375V3.0454L6.02324 5.46078C5.97094 5.51308 5.90886 5.55456 5.84053 5.58287C5.77219 5.61117 5.69896 5.62574 5.62499 5.62574C5.55103 5.62574 5.47779 5.61117 5.40946 5.58287C5.34113 5.55456 5.27904 5.51308 5.22674 5.46078C5.17444 5.40848 5.13296 5.34639 5.10465 5.27806C5.07635 5.20973 5.06178 5.13649 5.06178 5.06253C5.06178 4.98857 5.07635 4.91533 5.10465 4.847C5.13296 4.77867 5.17444 4.71658 5.22674 4.66428L8.60174 1.28928Z" fill="#007AFF"/>
</svg>
